<svg width="31" height="37" viewBox="0 0 31 37" fill="none" xmlns="http://www.w3.org/2000/svg">
<path d="M29.5167 22.7812C29.1913 21.7384 28.7507 20.5215 28.3023 19.3507L26.6652 15.2669C26.6652 15.2182 26.6857 14.4163 26.6857 14.0012C26.6883 7.01727 23.391 0 15.2823 0C7.17364 0 3.87893 7.01727 3.87893 14.0012C3.87893 14.4163 3.89943 15.2207 3.89943 15.2669L2.26232 19.3507C1.81397 20.5189 1.37075 21.7359 1.04794 22.7812C-0.376525 27.2108 -0.0844591 29.6703 0.389508 29.8497C1.06587 30.1084 3.57149 26.1169 3.57149 26.1169C3.57149 28.3432 4.71926 31.2485 7.19926 33.3468C6.26926 33.6337 5.13174 34.0718 4.40157 34.6124C3.74571 35.0966 3.82769 35.5911 3.94554 35.7909C4.46562 36.6671 12.8612 36.352 15.2849 36.0779C17.7085 36.352 26.1041 36.6671 26.6242 35.7909C26.7421 35.5911 26.8241 35.0966 26.1682 34.6124C25.4355 34.0718 24.2979 33.6337 23.3705 33.3468C25.8505 31.2485 26.9983 28.3432 26.9983 26.1169C26.9983 26.1169 29.5039 30.1059 30.1803 29.8497C30.6517 29.6703 30.9437 27.2108 29.5218 22.7812H29.5167Z" fill="var(------on_brand_primary, white)"/>
</svg>
