<svg width="54" height="26" viewBox="0 0 54 26" fill="none" xmlns="http://www.w3.org/2000/svg">
<path d="M50.6161 21.3327C52.763 18.9168 54.0107 15.6836 53.8339 12.1557C53.5034 5.6406 48.2129 0.347538 41.6978 0.0170422C34.0887 -0.369817 27.8401 5.88142 28.2243 13.4905C28.5548 20.0056 33.8479 25.2961 40.363 25.6266C43.2581 25.7727 45.9558 24.9554 48.1668 23.472L49.2429 24.9067C49.3248 25.0169 49.4555 25.0809 49.5913 25.0809H53.1217C53.2472 25.0809 53.3215 24.9375 53.2447 24.835L50.6186 21.3327H50.6161ZM41.0291 22.6189C35.7412 22.6189 31.4524 18.2327 31.4524 12.8218C31.4524 7.41093 35.7412 3.02481 41.0291 3.02481C46.3171 3.02481 50.6058 7.41093 50.6058 12.8218C50.6058 15.0405 49.8834 17.0875 48.6664 18.7298L46.6348 16.0218C46.5528 15.9116 46.4221 15.8475 46.2863 15.8475H42.7559C42.6304 15.8475 42.5561 15.991 42.6329 16.0935L46.3094 20.9946C44.7953 22.0194 42.9814 22.6189 41.0291 22.6189Z" fill="var(------on_brand_primary, white)"/>
<path d="M25.6264 12.1586C25.2959 5.64353 20.0029 0.350468 13.4903 0.0199719C5.88121 -0.366888 -0.367468 5.88435 0.0168293 13.4934C0.347325 20.0086 5.64038 25.2991 12.1555 25.6296C15.0505 25.7756 17.7483 24.9583 19.9593 23.4749L21.0353 24.9096C21.1173 25.0198 21.248 25.0839 21.3838 25.0839H24.9142C25.0397 25.0839 25.114 24.9404 25.0372 24.8379L22.4111 21.3357C24.5581 18.9197 25.8058 15.6865 25.629 12.1586H25.6264ZM18.4272 16.0247C18.3453 15.9145 18.2146 15.8505 18.0788 15.8505H14.5484C14.4229 15.8505 14.3486 15.9939 14.4254 16.0964L18.1019 20.9975C16.5877 22.0223 14.7739 22.6218 12.8216 22.6218C7.53369 22.6218 3.24493 18.2357 3.24493 12.8248C3.24493 7.41386 7.53369 3.02774 12.8216 3.02774C18.1096 3.02774 22.3983 7.41386 22.3983 12.8248C22.3983 15.0434 21.6758 17.0905 20.4589 18.7327L18.4272 16.0247Z" fill="var(------on_brand_primary, white)"/>
</svg>
