<svg width="40" height="40" viewBox="0 0 40 40" fill="none" xmlns="http://www.w3.org/2000/svg">
<path d="M17.5 3.33398C25.324 3.33398 31.6669 9.67605 31.667 17.5C31.667 20.8113 30.5296 23.8565 28.626 26.2686L36.1787 33.8213L33.8223 36.1787L26.2686 28.626C23.8565 30.5296 20.8113 31.667 17.5 31.667C9.67605 31.6669 3.33398 25.324 3.33398 17.5C3.33408 9.6761 9.6761 3.33408 17.5 3.33398ZM17.5 6.66699C11.5171 6.66709 6.66709 11.5171 6.66699 17.5C6.66699 23.483 11.517 28.3339 17.5 28.334C23.4831 28.334 28.334 23.4831 28.334 17.5C28.3339 11.517 23.483 6.66699 17.5 6.66699Z" fill="var(------brand_standard, #0099FF)"/>
</svg>
